<svg width="140" height="59" viewBox="0 0 140 59" fill="none" xmlns="http://www.w3.org/2000/svg">
<path d="M72.4859 38C71.9659 38 71.5239 37.818 71.1599 37.454C70.7959 37.09 70.6139 36.648 70.6139 36.128V21.646C70.6139 21.1433 70.7959 20.71 71.1599 20.346C71.5239 19.982 71.9659 19.8 72.4859 19.8H78.3879C78.9079 19.8 79.3499 19.982 79.7139 20.346C80.0779 20.71 80.2599 21.1433 80.2599 21.646V25.702L77.8419 25.156V23.128C77.8419 22.868 77.7466 22.6513 77.5559 22.478C77.3826 22.2873 77.1659 22.192 76.9059 22.192H73.9679C73.7079 22.192 73.4826 22.2873 73.2919 22.478C73.1186 22.6513 73.0319 22.868 73.0319 23.128V34.646C73.0319 34.906 73.1186 35.1313 73.2919 35.322C73.4826 35.4953 73.7079 35.582 73.9679 35.582H76.9059C77.1659 35.582 77.3826 35.4953 77.5559 35.322C77.7466 35.1313 77.8419 34.906 77.8419 34.646V32.124H75.4499L75.9959 29.706H80.2599V36.128C80.2599 36.648 80.0779 37.09 79.7139 37.454C79.3499 37.818 78.9079 38 78.3879 38H72.4859ZM85.3059 38V19.8H94.9779V22.192H87.7239V26.716H92.5599L92.0139 29.134H87.7239V35.582H94.9779V38H85.3059ZM99.5156 38V19.8H101.934L106.77 31.942V19.8H109.188V38H106.77L101.934 25.858V38H99.5156ZM120.725 38.026L124.391 19.826H126.757L130.371 38.026H127.953L127.251 34.62H123.793L123.143 38.026H120.725ZM124.261 32.228H126.835L125.587 25.754L124.261 32.228ZM135.924 38V19.8H138.342V38H135.924Z" fill="#EFEFE5"/>
<g clip-path="url(#clip0_86_4241)">
<path d="M48.1811 29.4978C49.3436 30.6603 51.0873 30.6603 52.2498 29.6431C53.4123 28.4807 53.4123 26.737 52.3951 25.5745L28.855 1.59847C28.1285 0.871927 27.1113 0.435999 26.2394 0.581308V7.26553L48.1811 29.4978Z" fill="url(#paint0_linear_86_4241)"/>
<path d="M26.2395 23.2494L31.6159 28.9165L28.2738 31.968H36.8471L37.283 31.532C37.8642 30.9508 38.3001 30.0789 38.3001 29.2071C38.3001 28.3352 38.0095 27.4634 37.4283 26.8821L28.7097 17.5824C27.9832 16.8558 26.966 16.4199 26.0942 16.5652L26.2395 23.2494Z" fill="url(#paint1_linear_86_4241)"/>
<path d="M15.9893 32.5294L16.5705 32.0935H11.63C11.7753 32.0935 11.7753 32.2388 11.9206 32.3841C12.9378 33.5466 14.8268 33.6919 15.9893 32.5294Z" fill="url(#paint2_linear_86_4241)"/>
<path d="M12.1447 28.1701C10.9822 29.1873 10.8369 30.931 11.7087 32.0935H16.5039L26.2396 23.3749V16.5454C25.5131 16.5454 24.7866 16.836 24.2053 17.4173L12.1447 28.1701Z" fill="url(#paint3_linear_86_4241)"/>
<path d="M7.2041 23.6656L26.3849 7.39101V0.706787C25.6584 0.706787 25.0771 0.997405 24.4959 1.43333L2.69952 19.8876C1.97297 20.4688 1.53705 21.3407 1.53705 22.3579L0.955811 32.0936H6.76818L7.2041 23.6656Z" fill="url(#paint4_linear_86_4241)"/>
<path d="M28.2741 31.968L26.2398 34.0023V41.849L36.8474 31.968H28.2741Z" fill="url(#paint5_linear_86_4241)"/>
<path d="M41.2068 33.7877L26.24 47.8827V55.8747L45.1302 38.0017C46.2927 36.8392 46.2927 35.0955 45.2755 33.933C44.2583 32.7705 42.3693 32.6252 41.2068 33.7877Z" fill="url(#paint6_linear_86_4241)"/>
<path d="M16.6492 42.4995L6.62291 34.5075L6.76822 31.6013H0.955856L0.810547 35.5247C0.810547 36.5418 1.24647 37.559 2.11833 38.2855L14.9055 48.4572C15.4868 48.8931 16.2133 49.1837 16.9399 49.1837C17.8117 49.1837 18.5383 48.8931 19.2648 48.3119L26.5303 41.6276V33.6356L16.6492 42.4995Z" fill="url(#paint7_linear_86_4241)"/>
<path d="M21.5898 52.2353C20.4274 53.3977 20.4274 55.1414 21.4445 56.3039C22.0258 56.8851 22.7523 57.1758 23.6242 57.1758C24.3507 57.1758 25.0773 56.8851 25.6585 56.4492L26.2397 55.868V47.876L21.5898 52.2353Z" fill="url(#paint8_linear_86_4241)"/>
</g>
<defs>
<linearGradient id="paint0_linear_86_4241" x1="57.0688" y1="31.7109" x2="23.726" y2="2.68175" gradientUnits="userSpaceOnUse">
<stop stop-color="#6C5AE6"/>
<stop offset="1" stop-color="#509ADD"/>
</linearGradient>
<linearGradient id="paint1_linear_86_4241" x1="48.2499" y1="41.8403" x2="14.9071" y2="12.8111" gradientUnits="userSpaceOnUse">
<stop stop-color="#6C5AE6"/>
<stop offset="1" stop-color="#509ADD"/>
</linearGradient>
<linearGradient id="paint2_linear_86_4241" x1="36.24" y1="14.7357" x2="10.8249" y2="34.6714" gradientUnits="userSpaceOnUse">
<stop stop-color="#509ADD"/>
<stop offset="1" stop-color="#26F4D0"/>
</linearGradient>
<linearGradient id="paint3_linear_86_4241" x1="35.1374" y1="13.2299" x2="9.72236" y2="33.1656" gradientUnits="userSpaceOnUse">
<stop stop-color="#509ADD"/>
<stop offset="1" stop-color="#26F4D0"/>
</linearGradient>
<linearGradient id="paint4_linear_86_4241" x1="29.4211" y1="5.94271" x2="4.00614" y2="25.8784" gradientUnits="userSpaceOnUse">
<stop stop-color="#509ADD"/>
<stop offset="1" stop-color="#26F4D0"/>
</linearGradient>
<linearGradient id="paint5_linear_86_4241" x1="33.9646" y1="34.4021" x2="26.1499" y2="37.3453" gradientUnits="userSpaceOnUse">
<stop stop-color="#FC6756"/>
<stop offset="1" stop-color="#F8CF3E"/>
</linearGradient>
<linearGradient id="paint6_linear_86_4241" x1="42.7757" y1="38.8109" x2="28.4654" y2="48.2496" gradientUnits="userSpaceOnUse">
<stop stop-color="#FC6756"/>
<stop offset="1" stop-color="#F8CF3E"/>
</linearGradient>
<linearGradient id="paint7_linear_86_4241" x1="26.6863" y1="45.7412" x2="4.18579" y2="28.72" gradientUnits="userSpaceOnUse">
<stop stop-color="#F8CF3E"/>
<stop offset="0.2882" stop-color="#F8CF3E"/>
<stop offset="1" stop-color="#27F3D1"/>
</linearGradient>
<linearGradient id="paint8_linear_86_4241" x1="22.5827" y1="51.1659" x2="0.0822802" y2="34.1447" gradientUnits="userSpaceOnUse">
<stop stop-color="#F8CF3E"/>
<stop offset="0.2882" stop-color="#F8CF3E"/>
<stop offset="1" stop-color="#27F3D1"/>
</linearGradient>
<clipPath id="clip0_86_4241">
<rect width="53.7644" height="58.1237" fill="white" transform="translate(0.0838013)"/>
</clipPath>
</defs>
</svg>
