<svg width="38" height="61" viewBox="0 0 38 61" fill="none" xmlns="http://www.w3.org/2000/svg">
<rect x="0.5" y="0.5" width="37" height="59.8696" rx="5.5" fill="#E44343" fill-opacity="0.15"/>
<rect x="0.5" y="0.5" width="37" height="59.8696" rx="5.5" stroke="#E94346"/>
<path d="M28.8859 42.9741C28.5135 38.8728 26.2586 34.5424 25.8449 32.5646C25.4104 30.5868 26.5275 25.5902 26.6723 21.7178C26.7965 17.8455 25.369 13.1196 24.6243 13.1404C23.8796 13.1404 23.7348 14.2022 23.1141 17.9496C22.8866 19.282 22.4522 21.01 21.9557 22.7172C21.8729 22.2383 21.8109 21.7803 21.7695 21.3847C21.4799 18.6366 20.5903 13.3902 19.8042 13.4319C19.0387 13.4943 18.5009 18.1578 17.963 21.4264C17.7975 22.4049 17.6527 23.425 17.5286 24.341C17.239 22.967 16.97 21.5929 16.7425 20.6561C16.1425 18.1786 16.246 10.4964 15.3564 10.0175C14.7979 9.72606 13.0602 13.1196 12.3361 16.4923C11.6327 19.8649 12.0465 29.1711 11.8396 30.795C11.6327 32.4188 9.68811 38.1857 9.17093 41.8082C8.65374 45.4308 9.29508 49.7403 11.3017 50.3649C14.5083 51.3642 19.6387 49.886 19.6387 49.886C19.6387 49.886 22.0591 51.4475 25.8035 50.6355C28.5963 50.0318 29.2789 47.0963 28.9066 42.9741H28.8859Z" fill="#E44343"/>
</svg>
