<svg width="865" height="215" viewBox="0 0 865 215" fill="none" xmlns="http://www.w3.org/2000/svg">
<rect x="0.5" y="0.5" width="39" height="99" rx="5.5" fill="#E44343" fill-opacity="0.15" stroke="#E94346"/>
<path d="M15.1092 74.84H12.6772V73.432H16.6132V85H15.1092V74.84ZM18.6348 81.784C18.6348 80.9947 18.8748 80.3173 19.3548 79.752C19.8348 79.176 20.4748 78.8133 21.2748 78.664L21.2908 79C20.5761 78.808 20.0215 78.4773 19.6268 78.008C19.2428 77.528 19.0508 76.9467 19.0508 76.264C19.0508 75.656 19.2108 75.128 19.5308 74.68C19.8508 74.2213 20.2988 73.864 20.8748 73.608C21.4615 73.352 22.1388 73.224 22.9068 73.224C23.6641 73.224 24.3255 73.352 24.8908 73.608C25.4668 73.864 25.9148 74.2213 26.2348 74.68C26.5548 75.1387 26.7148 75.672 26.7148 76.28C26.7148 76.9627 26.5175 77.544 26.1228 78.024C25.7388 78.4933 25.1895 78.8133 24.4748 78.984L24.4588 78.68C24.9921 78.7547 25.4615 78.9413 25.8668 79.24C26.2721 79.528 26.5868 79.8907 26.8108 80.328C27.0348 80.7653 27.1468 81.256 27.1468 81.8C27.1468 82.472 26.9655 83.064 26.6028 83.576C26.2508 84.088 25.7548 84.488 25.1148 84.776C24.4855 85.0533 23.7441 85.192 22.8908 85.192C22.0375 85.192 21.2908 85.0533 20.6508 84.776C20.0108 84.488 19.5148 84.088 19.1628 83.576C18.8108 83.064 18.6348 82.4667 18.6348 81.784ZM20.1708 81.672C20.1708 82.0987 20.2828 82.472 20.5068 82.792C20.7308 83.112 21.0455 83.3627 21.4508 83.544C21.8668 83.7147 22.3468 83.8 22.8908 83.8C23.4348 83.8 23.9095 83.7147 24.3148 83.544C24.7201 83.3627 25.0348 83.112 25.2588 82.792C25.4828 82.472 25.5948 82.0987 25.5948 81.672C25.5948 81.032 25.3495 80.5253 24.8588 80.152C24.3681 79.768 23.7068 79.576 22.8748 79.576C22.0535 79.576 21.3975 79.768 20.9068 80.152C20.4161 80.5253 20.1708 81.032 20.1708 81.672ZM20.4908 76.36C20.4908 76.9253 20.7041 77.3787 21.1308 77.72C21.5681 78.0613 22.1495 78.232 22.8748 78.232C23.6001 78.232 24.1761 78.0667 24.6028 77.736C25.0295 77.3947 25.2428 76.9467 25.2428 76.392C25.2428 75.8373 25.0295 75.4 24.6028 75.08C24.1761 74.7493 23.6001 74.584 22.8748 74.584C22.1495 74.584 21.5681 74.7493 21.1308 75.08C20.7041 75.4 20.4908 75.8267 20.4908 76.36Z" fill="#E44343"/>
<path d="M30.8859 53.9741C30.5135 49.8728 28.2586 45.5424 27.8449 43.5646C27.4104 41.5868 28.5275 36.5902 28.6723 32.7178C28.7965 28.8455 27.369 24.1196 26.6243 24.1404C25.8796 24.1404 25.7348 25.2022 25.1141 28.9496C24.8866 30.282 24.4522 32.01 23.9557 33.7172C23.8729 33.2383 23.8109 32.7803 23.7695 32.3847C23.4799 29.6366 22.5903 24.3902 21.8042 24.4319C21.0387 24.4943 20.5009 29.1578 19.963 32.4264C19.7975 33.4049 19.6527 34.425 19.5286 35.341C19.239 33.967 18.97 32.5929 18.7425 31.6561C18.1425 29.1786 18.246 21.4964 17.3564 21.0175C16.7979 20.7261 15.0602 24.1196 14.3361 27.4923C13.6327 30.8649 14.0465 40.1711 13.8396 41.795C13.6327 43.4188 11.6881 49.1857 11.1709 52.8082C10.6537 56.4308 11.2951 60.7403 13.3017 61.3649C16.5083 62.3642 21.6387 60.886 21.6387 60.886C21.6387 60.886 24.0591 62.4475 27.8035 61.6355C30.5963 61.0318 31.2789 58.0963 30.9066 53.9741H30.8859Z" fill="#E44343"/>
<rect x="0.5" y="-0.5" width="39" height="99" rx="5.5" transform="matrix(1 0 0 -1 0 214)" fill="#1C1C20" stroke="#2C2C30"/>
<path d="M18.4461 130.432V142H16.9421V130.432H18.4461ZM10.9581 138.272L16.4141 130.432H18.0941L12.5901 138.368L10.9581 138.272ZM19.8221 139.664H10.9581V138.272H19.8221V139.664ZM21.3379 138.784C21.3379 137.995 21.5779 137.317 22.0579 136.752C22.5379 136.176 23.1779 135.813 23.9779 135.664L23.9939 136C23.2793 135.808 22.7246 135.477 22.3299 135.008C21.9459 134.528 21.7539 133.947 21.7539 133.264C21.7539 132.656 21.9139 132.128 22.2339 131.68C22.5539 131.221 23.0019 130.864 23.5779 130.608C24.1646 130.352 24.8419 130.224 25.6099 130.224C26.3673 130.224 27.0286 130.352 27.5939 130.608C28.1699 130.864 28.6179 131.221 28.9379 131.68C29.2579 132.139 29.4179 132.672 29.4179 133.28C29.4179 133.963 29.2206 134.544 28.8259 135.024C28.4419 135.493 27.8926 135.813 27.1779 135.984L27.1619 135.68C27.6953 135.755 28.1646 135.941 28.5699 136.24C28.9753 136.528 29.2899 136.891 29.5139 137.328C29.7379 137.765 29.8499 138.256 29.8499 138.8C29.8499 139.472 29.6686 140.064 29.3059 140.576C28.9539 141.088 28.4579 141.488 27.8179 141.776C27.1886 142.053 26.4473 142.192 25.5939 142.192C24.7406 142.192 23.9939 142.053 23.3539 141.776C22.7139 141.488 22.2179 141.088 21.8659 140.576C21.5139 140.064 21.3379 139.467 21.3379 138.784ZM22.8739 138.672C22.8739 139.099 22.9859 139.472 23.2099 139.792C23.4339 140.112 23.7486 140.363 24.1539 140.544C24.5699 140.715 25.0499 140.8 25.5939 140.8C26.1379 140.8 26.6126 140.715 27.0179 140.544C27.4233 140.363 27.7379 140.112 27.9619 139.792C28.1859 139.472 28.2979 139.099 28.2979 138.672C28.2979 138.032 28.0526 137.525 27.5619 137.152C27.0713 136.768 26.4099 136.576 25.5779 136.576C24.7566 136.576 24.1006 136.768 23.6099 137.152C23.1193 137.525 22.8739 138.032 22.8739 138.672ZM23.1939 133.36C23.1939 133.925 23.4073 134.379 23.8339 134.72C24.2713 135.061 24.8526 135.232 25.5779 135.232C26.3033 135.232 26.8793 135.067 27.3059 134.736C27.7326 134.395 27.9459 133.947 27.9459 133.392C27.9459 132.837 27.7326 132.4 27.3059 132.08C26.8793 131.749 26.3033 131.584 25.5779 131.584C24.8526 131.584 24.2713 131.749 23.8339 132.08C23.4073 132.4 23.1939 132.827 23.1939 133.36Z" fill="white"/>
<path d="M11.1141 161.026C11.4865 165.127 13.7414 169.458 14.1551 171.435C14.5896 173.413 13.4725 178.41 13.3277 182.282C13.2035 186.155 14.631 190.88 15.3757 190.86C16.1204 190.86 16.2652 189.798 16.8859 186.05C17.1134 184.718 17.5478 182.99 18.0443 181.283C18.1271 181.762 18.1891 182.22 18.2305 182.615C18.5201 185.363 19.4097 190.61 20.1958 190.568C20.9613 190.506 21.4991 185.842 22.037 182.574C22.2025 181.595 22.3473 180.575 22.4714 179.659C22.761 181.033 23.03 182.407 23.2575 183.344C23.8575 185.821 23.754 193.504 24.6436 193.982C25.2021 194.274 26.9398 190.88 27.6639 187.508C28.3673 184.135 27.9535 174.829 28.1604 173.205C28.3673 171.581 30.3119 165.814 30.8291 162.192C31.3463 158.569 30.7049 154.26 28.6983 153.635C25.4917 152.636 20.3613 154.114 20.3613 154.114C20.3613 154.114 17.9409 152.553 14.1965 153.364C11.4037 153.968 10.7211 156.904 11.0934 161.026H11.1141Z" fill="white"/>
<rect x="55.5" y="0.5" width="39" height="99" rx="5.5" fill="#EB4545" fill-opacity="0.15" stroke="#E94346"/>
<path d="M71.2889 74.84H68.8569V73.432H72.7929V85H71.2889V74.84ZM74.5186 73.432H82.5986V74.872H74.5186V73.432ZM81.3826 74.04L82.5986 74.872L78.2146 85H76.5826L81.3826 74.04Z" fill="#E94346"/>
<path d="M80.0183 24.8938C80.5538 24.6159 81.9618 26.7003 82.6361 29.936C83.3103 33.1519 83.35 41.8666 83.5483 43.415C83.7466 44.9634 85.4125 50.0652 85.9082 53.5193C86.404 56.9734 84.8175 61.7775 82.9137 62.1348C80.177 62.6509 75.3976 61.2018 75.3976 61.2018C75.3976 61.2018 72.4824 62.0752 69.7457 61.9164C67.0288 61.7576 65.7001 58.1645 66.0571 54.2538C66.414 50.3431 68.8929 46.5714 69.3094 44.6855C69.7259 42.7997 69.468 36.3877 69.5474 32.7152C69.6267 29.0229 71.6297 23.941 72.3436 24.0005C73.0575 24.0601 72.7402 26.2834 73.1368 29.8963C73.5335 33.4894 75.1001 41.5887 76.052 41.6086C77.004 41.6086 77.8369 36.2884 78.412 33.9261C78.9871 31.5638 79.1656 25.3901 80.0183 24.9335V24.8938Z" fill="#E44343"/>
<rect x="0.5" y="-0.5" width="39" height="99" rx="5.5" transform="matrix(1 0 0 -1 55 214)" fill="#E94346" fill-opacity="0.15" stroke="#E94346"/>
<path d="M74.0633 130.432V142H72.5593V130.432H74.0633ZM66.5753 138.272L72.0313 130.432H73.7113L68.2073 138.368L66.5753 138.272ZM75.4392 139.664H66.5753V138.272H75.4392V139.664ZM75.7843 130.432H83.8643V131.872H75.7843V130.432ZM82.6483 131.04L83.8643 131.872L79.4803 142H77.8483L82.6483 131.04Z" fill="#E44343"/>
<path d="M80.0183 190.106C80.5538 190.384 81.9618 188.3 82.6361 185.064C83.3103 181.848 83.35 173.133 83.5483 171.585C83.7466 170.037 85.4125 164.935 85.9082 161.481C86.404 158.027 84.8175 153.223 82.9137 152.865C80.177 152.349 75.3976 153.798 75.3976 153.798C75.3976 153.798 72.4824 152.925 69.7457 153.084C67.0288 153.242 65.7001 156.835 66.0571 160.746C66.414 164.657 68.8929 168.429 69.3094 170.314C69.7259 172.2 69.468 178.612 69.5474 182.285C69.6267 185.977 71.6297 191.059 72.3436 190.999C73.0575 190.94 72.7402 188.717 73.1368 185.104C73.5335 181.511 75.1001 173.411 76.052 173.391C77.004 173.391 77.8369 178.712 78.412 181.074C78.9871 183.436 79.1656 189.61 80.0183 190.066V190.106Z" fill="#E44343"/>
<rect x="110.5" y="0.5" width="39" height="99" rx="5.5" fill="#1C1C20" stroke="#2C2C30"/>
<path d="M125.187 74.84H122.755V73.432H126.691V85H125.187V74.84ZM130.279 77.096L132.983 73.432H134.807L131.495 77.832L131.143 77.72C131.453 77.4853 131.773 77.3147 132.103 77.208C132.445 77.0907 132.786 77.032 133.127 77.032C133.927 77.032 134.626 77.208 135.223 77.56C135.831 77.9013 136.301 78.376 136.631 78.984C136.973 79.592 137.143 80.28 137.143 81.048C137.143 81.8587 136.957 82.5787 136.583 83.208C136.221 83.8267 135.719 84.312 135.079 84.664C134.45 85.016 133.735 85.192 132.935 85.192C132.135 85.192 131.41 85.0107 130.759 84.648C130.119 84.2853 129.613 83.7893 129.239 83.16C128.866 82.5307 128.679 81.8267 128.679 81.048C128.679 80.5893 128.727 80.1627 128.823 79.768C128.93 79.3733 129.101 78.9627 129.335 78.536C129.57 78.1093 129.885 77.6293 130.279 77.096ZM130.279 81.064C130.279 81.5973 130.391 82.072 130.615 82.488C130.839 82.8933 131.149 83.2133 131.543 83.448C131.949 83.672 132.413 83.784 132.935 83.784C133.447 83.784 133.901 83.672 134.295 83.448C134.69 83.2133 134.999 82.8933 135.223 82.488C135.447 82.072 135.559 81.5973 135.559 81.064C135.559 80.5307 135.447 80.0613 135.223 79.656C134.999 79.2507 134.69 78.936 134.295 78.712C133.901 78.4773 133.447 78.36 132.935 78.36C132.413 78.36 131.949 78.4773 131.543 78.712C131.149 78.936 130.839 79.2507 130.615 79.656C130.391 80.0613 130.279 80.5307 130.279 81.064Z" fill="white"/>
<path d="M121.057 54.3836C121.414 50.473 123.893 46.7014 124.309 44.8157C124.726 42.9299 124.032 38.1658 123.913 34.4736C123.794 30.7814 125.479 25.6004 126.193 25.6004C126.907 25.6004 126.729 27.8634 127.323 31.4365C127.601 33.1039 128.236 35.4462 128.91 37.471C129.267 36.1609 129.604 34.8904 129.743 33.8781C130.219 30.5829 130.318 27.7244 131.071 27.3076C131.468 27.0892 133.074 29.9278 133.55 33.362C134.026 30.6821 134.244 25.4615 135.018 25.0248C135.553 24.7469 136.961 26.8312 137.635 30.0668C138.31 33.2826 137.913 42.1954 138.111 43.7437C138.31 45.2921 140.412 50.1951 140.907 53.6491C141.403 57.1031 139.837 61.9466 137.913 62.2642C136.009 62.5818 131.885 61.3312 131.885 61.3312C131.885 61.3312 127.462 62.2046 124.746 62.0458C122.029 61.887 120.7 58.2941 121.057 54.3836Z" fill="white"/>
<rect x="0.5" y="-0.5" width="39" height="99" rx="5.5" transform="matrix(1 0 0 -1 110 214)" fill="#6C5AE6" fill-opacity="0.2" stroke="#6C5AE6"/>
<path d="M128.18 130.432V142H126.676V130.432H128.18ZM120.692 138.272L126.148 130.432H127.828L122.324 138.368L120.692 138.272ZM129.556 139.664H120.692V138.272H129.556V139.664ZM132.326 134.096L135.03 130.432H136.854L133.542 134.832L133.19 134.72C133.5 134.485 133.82 134.315 134.15 134.208C134.492 134.091 134.833 134.032 135.174 134.032C135.974 134.032 136.673 134.208 137.27 134.56C137.878 134.901 138.348 135.376 138.678 135.984C139.02 136.592 139.19 137.28 139.19 138.048C139.19 138.859 139.004 139.579 138.63 140.208C138.268 140.827 137.766 141.312 137.126 141.664C136.497 142.016 135.782 142.192 134.982 142.192C134.182 142.192 133.457 142.011 132.806 141.648C132.166 141.285 131.66 140.789 131.286 140.16C130.913 139.531 130.726 138.827 130.726 138.048C130.726 137.589 130.774 137.163 130.87 136.768C130.977 136.373 131.148 135.963 131.382 135.536C131.617 135.109 131.932 134.629 132.326 134.096ZM132.326 138.064C132.326 138.597 132.438 139.072 132.662 139.488C132.886 139.893 133.196 140.213 133.59 140.448C133.996 140.672 134.46 140.784 134.982 140.784C135.494 140.784 135.948 140.672 136.342 140.448C136.737 140.213 137.046 139.893 137.27 139.488C137.494 139.072 137.606 138.597 137.606 138.064C137.606 137.531 137.494 137.061 137.27 136.656C137.046 136.251 136.737 135.936 136.342 135.712C135.948 135.477 135.494 135.36 134.982 135.36C134.46 135.36 133.996 135.477 133.59 135.712C133.196 135.936 132.886 136.251 132.662 136.656C132.438 137.061 132.326 137.531 132.326 138.064Z" fill="#6C5AE6"/>
<path d="M121.057 160.616C121.414 164.527 123.893 168.299 124.309 170.184C124.726 172.07 124.032 176.834 123.913 180.526C123.794 184.219 125.479 189.4 126.193 189.4C126.907 189.4 126.729 187.137 127.323 183.564C127.601 181.896 128.236 179.554 128.91 177.529C129.267 178.839 129.604 180.11 129.743 181.122C130.219 184.417 130.318 187.276 131.071 187.692C131.468 187.911 133.074 185.072 133.55 181.638C134.026 184.318 134.244 189.539 135.018 189.975C135.553 190.253 136.961 188.169 137.635 184.933C138.31 181.717 137.913 172.805 138.111 171.256C138.31 169.708 140.412 164.805 140.907 161.351C141.403 157.897 139.837 153.053 137.913 152.736C136.009 152.418 131.885 153.669 131.885 153.669C131.885 153.669 127.462 152.795 124.746 152.954C122.029 153.113 120.7 156.706 121.057 160.616Z" fill="#6C5AE6"/>
<rect x="165.5" y="0.5" width="39" height="99" rx="5.5" fill="#1C1C20" stroke="#2C2C30"/>
<path d="M180.383 74.84H177.951V73.432H181.887V85H180.383V74.84ZM187.828 85.192C187.039 85.192 186.351 85.0373 185.764 84.728C185.188 84.408 184.735 83.9653 184.404 83.4C184.084 82.824 183.924 82.152 183.924 81.384H185.476C185.476 82.1307 185.69 82.7173 186.116 83.144C186.543 83.5707 187.124 83.784 187.86 83.784C188.383 83.784 188.836 83.6773 189.22 83.464C189.604 83.24 189.903 82.936 190.116 82.552C190.33 82.1573 190.436 81.6987 190.436 81.176C190.436 80.6747 190.335 80.232 190.132 79.848C189.93 79.4533 189.636 79.144 189.252 78.92C188.879 78.696 188.42 78.584 187.876 78.584C187.396 78.584 186.943 78.6907 186.516 78.904C186.09 79.1067 185.743 79.3733 185.476 79.704L184.148 79.368L185.556 73.432H191.348V74.872H186.132L186.852 74.232L185.78 78.536L185.252 78.648C185.551 78.1893 185.956 77.8427 186.468 77.608C186.98 77.3627 187.546 77.24 188.164 77.24C188.954 77.24 189.636 77.4107 190.212 77.752C190.788 78.0827 191.236 78.5413 191.556 79.128C191.876 79.7147 192.036 80.376 192.036 81.112C192.036 81.912 191.855 82.6213 191.492 83.24C191.14 83.848 190.65 84.328 190.02 84.68C189.402 85.0213 188.671 85.192 187.828 85.192Z" fill="white"/>
<path d="M186.726 20C188.22 20 189.271 23.748 190.074 29.4526C190.765 34.4735 191.706 39.7538 192.37 44.1147C193.034 48.4756 192.812 50.0314 193.587 52.2944C195.081 56.561 196.408 61.1812 195.883 62.1713C195.689 62.5013 189.714 65 185.343 65C180.973 65 176.242 62.737 176.242 62.737C175.495 62.3127 176.574 56.3253 178.123 52.153C179.617 48.1928 180.419 43.384 181.166 36.6186C182.051 28.6276 184.043 20 186.726 20Z" fill="white"/>
<rect x="0.5" y="-0.5" width="39" height="99" rx="5.5" transform="matrix(1 0 0 -1 165 214)" fill="#1C1C20" stroke="#2C2C30"/>
<path d="M183.305 130.432V142H181.801V130.432H183.305ZM175.817 138.272L181.273 130.432H182.953L177.449 138.368L175.817 138.272ZM184.681 139.664H175.817V138.272H184.681V139.664ZM189.945 142.192C189.156 142.192 188.468 142.037 187.881 141.728C187.305 141.408 186.852 140.965 186.521 140.4C186.201 139.824 186.041 139.152 186.041 138.384H187.593C187.593 139.131 187.807 139.717 188.233 140.144C188.66 140.571 189.241 140.784 189.977 140.784C190.5 140.784 190.953 140.677 191.337 140.464C191.721 140.24 192.02 139.936 192.233 139.552C192.447 139.157 192.553 138.699 192.553 138.176C192.553 137.675 192.452 137.232 192.249 136.848C192.047 136.453 191.753 136.144 191.369 135.92C190.996 135.696 190.537 135.584 189.993 135.584C189.513 135.584 189.06 135.691 188.633 135.904C188.207 136.107 187.86 136.373 187.593 136.704L186.265 136.368L187.673 130.432H193.465V131.872H188.249L188.969 131.232L187.897 135.536L187.369 135.648C187.668 135.189 188.073 134.843 188.585 134.608C189.097 134.363 189.663 134.24 190.281 134.24C191.071 134.24 191.753 134.411 192.329 134.752C192.905 135.083 193.353 135.541 193.673 136.128C193.993 136.715 194.153 137.376 194.153 138.112C194.153 138.912 193.972 139.621 193.609 140.24C193.257 140.848 192.767 141.328 192.137 141.68C191.519 142.021 190.788 142.192 189.945 142.192Z" fill="white"/>
<path d="M186.726 195C188.22 195 189.271 191.252 190.074 185.547C190.765 180.526 191.706 175.246 192.37 170.885C193.034 166.524 192.812 164.969 193.587 162.706C195.081 158.439 196.408 153.819 195.883 152.829C195.689 152.499 189.714 150 185.343 150C180.973 150 176.242 152.263 176.242 152.263C175.495 152.687 176.574 158.675 178.123 162.847C179.617 166.807 180.419 171.616 181.166 178.381C182.051 186.372 184.043 195 186.726 195Z" fill="white"/>
<rect x="220.5" y="0.5" width="39" height="99" rx="5.5" fill="#1C1C20" stroke="#2C2C30"/>
<path d="M234.992 74.84H232.56V73.432H236.496V85H234.992V74.84ZM245.86 73.432V85H244.356V73.432H245.86ZM238.372 81.272L243.828 73.432H245.508L240.004 81.368L238.372 81.272ZM247.236 82.664H238.372V81.272H247.236V82.664Z" fill="white"/>
<path d="M233.448 50.1456C234.867 45.8168 235.34 40.5862 235.97 33.1912C236.601 25.7962 237.835 15 240.384 15C241.802 15 242.906 19.9214 244.167 25.3324C245.428 30.7176 246.374 36.5924 247.004 41.3592C247.635 46.126 247.792 47.8266 248.58 50.3002C250.078 54.9639 251.391 60.0142 250.892 61.0964C250.393 62.1786 249.552 61.5602 248.396 61.5602C247.24 61.5602 242.879 65.4252 240.042 64.9614C237.205 64.4976 235.524 62.1786 234.368 61.7148C233.185 61.251 232.686 62.6424 231.189 61.7148C230.453 61.251 232.003 54.7063 233.501 50.1456H233.448Z" fill="white"/>
<rect x="0.5" y="-0.5" width="39" height="99" rx="5.5" transform="matrix(1 0 0 -1 220 214)" fill="#E94346" fill-opacity="0.15" stroke="#E94346"/>
<path d="M238.446 130.432V142H236.942V130.432H238.446ZM230.958 138.272L236.414 130.432H238.094L232.59 138.368L230.958 138.272ZM239.822 139.664H230.958V138.272H239.822V139.664ZM248.446 130.432V142H246.942V130.432H248.446ZM240.958 138.272L246.414 130.432H248.094L242.59 138.368L240.958 138.272ZM249.822 139.664H240.958V138.272H249.822V139.664Z" fill="#E44343"/>
<path d="M233.448 164.854C234.867 169.183 235.34 174.414 235.97 181.809C236.601 189.204 237.835 200 240.384 200C241.802 200 242.906 195.079 244.167 189.668C245.428 184.282 246.374 178.408 247.004 173.641C247.635 168.874 247.792 167.173 248.58 164.7C250.078 160.036 251.391 154.986 250.892 153.904C250.393 152.821 249.552 153.44 248.396 153.44C247.24 153.44 242.879 149.575 240.042 150.039C237.205 150.502 235.524 152.821 234.368 153.285C233.185 153.749 232.686 152.358 231.189 153.285C230.453 153.749 232.003 160.294 233.501 164.854H233.448Z" fill="#E44343"/>
<rect x="275.5" y="0.5" width="39" height="99" rx="5.5" fill="#E94346" fill-opacity="0.15" stroke="#E94346"/>
<path d="M291.031 74.84H288.599V73.432H292.535V85H291.031V74.84ZM302.075 74.696L297.835 78.744L296.811 77.976L300.907 74.04L300.827 74.824H294.891V73.432H302.075V74.696ZM297.963 79.016H296.811V77.976C296.993 77.8587 297.217 77.784 297.483 77.752C297.761 77.7093 298.027 77.688 298.283 77.688C298.849 77.688 299.377 77.7733 299.867 77.944C300.358 78.104 300.79 78.344 301.163 78.664C301.547 78.984 301.841 79.3733 302.043 79.832C302.257 80.28 302.363 80.792 302.363 81.368C302.363 82.1467 302.182 82.824 301.819 83.4C301.467 83.976 300.977 84.4187 300.347 84.728C299.729 85.0373 299.03 85.192 298.251 85.192C297.494 85.192 296.822 85.0427 296.235 84.744C295.649 84.4453 295.185 84.0133 294.843 83.448C294.513 82.872 294.347 82.1893 294.347 81.4H295.899C295.899 82.1467 296.113 82.7333 296.539 83.16C296.977 83.576 297.558 83.784 298.283 83.784C299.03 83.784 299.627 83.56 300.075 83.112C300.534 82.664 300.763 82.072 300.763 81.336C300.763 80.6427 300.529 80.0827 300.059 79.656C299.59 79.2293 298.891 79.016 297.963 79.016Z" fill="#E44343"/>
<path d="M294.169 14.012C295.738 13.7013 297.75 19.4496 299.489 25.6381C301.74 33.691 302.081 39.6464 302.354 42.2875C302.695 45.6019 306.378 55.8038 305.968 59.2218C305.764 60.7754 297.341 65.1513 295.602 64.996C293.862 64.8406 287.042 61.1638 286.531 59.895C284.792 55.5967 287.861 46.068 288.133 41.8991C288.406 37.6785 288.884 30.7909 289.293 26.9069C289.702 23.0229 292.567 14.3487 294.203 14.0379L294.169 14.012Z" fill="#E44343"/>
<rect x="0.5" y="-0.5" width="39" height="99" rx="5.5" transform="matrix(1 0 0 -1 275 214)" fill="#1C1C20" stroke="#2C2C30"/>
<path d="M293.407 130.432V142H291.903V130.432H293.407ZM285.919 138.272L291.375 130.432H293.055L287.551 138.368L285.919 138.272ZM294.783 139.664H285.919V138.272H294.783V139.664ZM303.739 131.696L299.499 135.744L298.475 134.976L302.571 131.04L302.491 131.824H296.555V130.432H303.739V131.696ZM299.627 136.016H298.475V134.976C298.657 134.859 298.881 134.784 299.147 134.752C299.425 134.709 299.691 134.688 299.947 134.688C300.513 134.688 301.041 134.773 301.531 134.944C302.022 135.104 302.454 135.344 302.827 135.664C303.211 135.984 303.505 136.373 303.707 136.832C303.921 137.28 304.027 137.792 304.027 138.368C304.027 139.147 303.846 139.824 303.483 140.4C303.131 140.976 302.641 141.419 302.011 141.728C301.393 142.037 300.694 142.192 299.915 142.192C299.158 142.192 298.486 142.043 297.899 141.744C297.313 141.445 296.849 141.013 296.507 140.448C296.177 139.872 296.011 139.189 296.011 138.4H297.563C297.563 139.147 297.777 139.733 298.203 140.16C298.641 140.576 299.222 140.784 299.947 140.784C300.694 140.784 301.291 140.56 301.739 140.112C302.198 139.664 302.427 139.072 302.427 138.336C302.427 137.643 302.193 137.083 301.723 136.656C301.254 136.229 300.555 136.016 299.627 136.016Z" fill="white"/>
<path d="M294.169 200.988C295.738 201.299 297.75 195.55 299.489 189.362C301.74 181.309 302.081 175.354 302.354 172.712C302.695 169.398 306.378 159.196 305.968 155.778C305.764 154.225 297.341 149.849 295.602 150.004C293.862 150.159 287.042 153.836 286.531 155.105C284.792 159.403 287.861 168.932 288.133 173.101C288.406 177.321 288.884 184.209 289.293 188.093C289.702 191.977 292.567 200.651 294.203 200.962L294.169 200.988Z" fill="white"/>
<rect x="330.5" y="0.5" width="39" height="99" rx="5.5" fill="#1C1C20" stroke="#2C2C30"/>
<path d="M345.476 74.84H343.044V73.432H346.98V85H345.476V74.84ZM356.857 84.984L349.049 85V83.8L352.777 80.584C353.246 80.1893 353.635 79.832 353.945 79.512C354.254 79.192 354.499 78.8987 354.681 78.632C354.862 78.3547 354.99 78.0827 355.065 77.816C355.139 77.5493 355.177 77.2613 355.177 76.952C355.177 76.2267 354.979 75.6613 354.585 75.256C354.201 74.84 353.657 74.632 352.953 74.632C352.238 74.632 351.662 74.8773 351.225 75.368C350.798 75.848 350.579 76.4987 350.569 77.32H349.001C349.022 76.4987 349.198 75.7787 349.529 75.16C349.859 74.5413 350.318 74.0667 350.905 73.736C351.502 73.3947 352.19 73.224 352.969 73.224C353.747 73.224 354.419 73.3733 354.985 73.672C355.55 73.9707 355.987 74.392 356.297 74.936C356.617 75.4693 356.777 76.1093 356.777 76.856C356.777 77.2613 356.723 77.6507 356.617 78.024C356.51 78.3867 356.339 78.7493 356.105 79.112C355.881 79.464 355.587 79.832 355.225 80.216C354.862 80.5893 354.425 81 353.913 81.448L350.889 84.072L350.361 83.528H356.857V84.984Z" fill="white"/>
<path d="M350.238 13.0039C352.84 12.8412 354.275 17.8015 356.443 29.5111C357.244 33.7667 358.378 38.0494 359.178 41.79C360.613 48.5664 361.78 61.5228 360.346 63.7184C359.545 65.5073 343.934 65.1821 342.533 64.2063C339.864 62.7426 341.365 47.6448 341.966 42.4405C343.767 35.2304 344.067 30.4327 345.068 25.0658C345.969 20.1868 347.937 13.1665 350.238 13.0039Z" fill="white"/>
<rect x="0.5" y="-0.5" width="39" height="99" rx="5.5" transform="matrix(1 0 0 -1 330 214)" fill="#1C1C20" stroke="#2C2C30"/>
<path d="M349.048 130.432V142H347.544V130.432H349.048ZM341.56 138.272L347.016 130.432H348.696L343.192 138.368L341.56 138.272ZM350.424 139.664H341.56V138.272H350.424V139.664ZM359.325 141.984L351.517 142V140.8L355.245 137.584C355.715 137.189 356.104 136.832 356.413 136.512C356.723 136.192 356.968 135.899 357.149 135.632C357.331 135.355 357.459 135.083 357.533 134.816C357.608 134.549 357.645 134.261 357.645 133.952C357.645 133.227 357.448 132.661 357.053 132.256C356.669 131.84 356.125 131.632 355.421 131.632C354.707 131.632 354.131 131.877 353.693 132.368C353.267 132.848 353.048 133.499 353.037 134.32H351.469C351.491 133.499 351.667 132.779 351.997 132.16C352.328 131.541 352.787 131.067 353.373 130.736C353.971 130.395 354.659 130.224 355.437 130.224C356.216 130.224 356.888 130.373 357.453 130.672C358.019 130.971 358.456 131.392 358.765 131.936C359.085 132.469 359.245 133.109 359.245 133.856C359.245 134.261 359.192 134.651 359.085 135.024C358.979 135.387 358.808 135.749 358.573 136.112C358.349 136.464 358.056 136.832 357.693 137.216C357.331 137.589 356.893 138 356.381 138.448L353.357 141.072L352.829 140.528H359.325V141.984Z" fill="white"/>
<path d="M350.238 201.996C352.84 202.159 354.275 197.198 356.443 185.489C357.244 181.233 358.378 176.951 359.178 173.21C360.613 166.434 361.78 153.477 360.346 151.282C359.545 149.493 343.934 149.818 342.533 150.794C339.864 152.257 341.365 167.355 341.966 172.559C343.767 179.77 344.067 184.567 345.068 189.934C345.969 194.813 347.937 201.834 350.238 201.996Z" fill="white"/>
<rect x="385.5" y="0.5" width="39" height="99" rx="5.5" fill="#1C1C20" stroke="#2C2C30"/>
<path d="M402.234 74.84H399.802V73.432H403.738V85H402.234V74.84ZM407.922 74.84H405.49V73.432H409.426V85H407.922V74.84Z" fill="white"/>
<path d="M404.731 14.0017C406.973 13.8768 409.474 20.5506 410.998 27.6243C411.86 31.5486 411.86 37.2976 413.096 40.9719C413.355 41.7218 414.792 45.6711 415.396 49.9703C416.23 55.6443 416.172 62.0431 415.396 63.4929C414.649 65.5925 398.521 65.2175 397.112 64.0678C396.049 63.4179 395.761 56.944 396.193 51.2701C396.537 46.8458 397.429 43.1465 397.889 41.6218C399.125 35.1729 399.355 28.6241 400.361 23.75C401.252 19.4757 402.747 14.1267 404.731 14.0267V14.0017Z" fill="white"/>
<rect x="0.5" y="-0.5" width="39" height="99" rx="5.5" transform="matrix(1 0 0 -1 385 214)" fill="#6C5AE6" fill-opacity="0.25" stroke="#6C5AE6"/>
<path d="M405.329 130.432V142H403.825V130.432H405.329ZM397.841 138.272L403.297 130.432H404.977L399.473 138.368L397.841 138.272ZM406.705 139.664H397.841V138.272H406.705V139.664ZM409.867 131.84H407.435V130.432H411.371V142H409.867V131.84Z" fill="#6C5AE6"/>
<path d="M404.731 200.998C406.973 201.123 409.474 194.449 410.998 187.376C411.86 183.451 411.86 177.702 413.096 174.028C413.355 173.278 414.792 169.329 415.396 165.03C416.23 159.356 416.172 152.957 415.396 151.507C414.649 149.408 398.521 149.782 397.112 150.932C396.049 151.582 395.761 158.056 396.193 163.73C396.537 168.154 397.429 171.853 397.889 173.378C399.125 179.827 399.355 186.376 400.361 191.25C401.252 195.524 402.747 200.873 404.731 200.973V200.998Z" fill="#6C5AE6"/>
<rect x="440.5" y="0.5" width="39" height="99" rx="5.5" fill="#1C1C20" stroke="#2C2C30"/>
<path d="M460.997 84.984L453.189 85V83.8L456.917 80.584C457.386 80.1893 457.776 79.832 458.085 79.512C458.394 79.192 458.64 78.8987 458.821 78.632C459.002 78.3547 459.13 78.0827 459.205 77.816C459.28 77.5493 459.317 77.2613 459.317 76.952C459.317 76.2267 459.12 75.6613 458.725 75.256C458.341 74.84 457.797 74.632 457.093 74.632C456.378 74.632 455.802 74.8773 455.365 75.368C454.938 75.848 454.72 76.4987 454.709 77.32H453.141C453.162 76.4987 453.338 75.7787 453.669 75.16C454 74.5413 454.458 74.0667 455.045 73.736C455.642 73.3947 456.33 73.224 457.109 73.224C457.888 73.224 458.56 73.3733 459.125 73.672C459.69 73.9707 460.128 74.392 460.437 74.936C460.757 75.4693 460.917 76.1093 460.917 76.856C460.917 77.2613 460.864 77.6507 460.757 78.024C460.65 78.3867 460.48 78.7493 460.245 79.112C460.021 79.464 459.728 79.832 459.365 80.216C459.002 80.5893 458.565 81 458.053 81.448L455.029 84.072L454.501 83.528H460.997V84.984ZM464.711 74.84H462.279V73.432H466.215V85H464.711V74.84Z" fill="white"/>
<path d="M459.731 11.0019C461.973 10.8671 464.474 18.0643 465.998 25.6929C466.86 29.9249 466.86 36.1248 468.096 40.0873C468.355 40.896 469.792 45.1551 470.396 49.7915C471.23 55.9105 471.172 62.8112 470.396 64.3746C469.649 66.6389 453.521 66.2346 452.112 64.9946C451.049 64.2938 450.761 57.3122 451.193 51.1932C451.537 46.422 452.429 42.4325 452.889 40.7882C454.125 33.8336 454.355 26.7711 455.361 21.5147C456.252 16.9052 457.747 11.1366 459.731 11.0288V11.0019Z" fill="white"/>
<rect x="0.5" y="-0.5" width="39" height="99" rx="5.5" transform="matrix(1 0 0 -1 440 214)" fill="#1C1C20" stroke="#2C2C30"/>
<path d="M461.325 131.696L457.085 135.744L456.061 134.976L460.157 131.04L460.077 131.824H454.141V130.432H461.325V131.696ZM457.213 136.016H456.061V134.976C456.243 134.859 456.467 134.784 456.733 134.752C457.011 134.709 457.277 134.688 457.533 134.688C458.099 134.688 458.627 134.773 459.117 134.944C459.608 135.104 460.04 135.344 460.413 135.664C460.797 135.984 461.091 136.373 461.293 136.832C461.507 137.28 461.613 137.792 461.613 138.368C461.613 139.147 461.432 139.824 461.069 140.4C460.717 140.976 460.227 141.419 459.597 141.728C458.979 142.037 458.28 142.192 457.501 142.192C456.744 142.192 456.072 142.043 455.485 141.744C454.899 141.445 454.435 141.013 454.093 140.448C453.763 139.872 453.597 139.189 453.597 138.4H455.149C455.149 139.147 455.363 139.733 455.789 140.16C456.227 140.576 456.808 140.784 457.533 140.784C458.28 140.784 458.877 140.56 459.325 140.112C459.784 139.664 460.013 139.072 460.013 138.336C460.013 137.643 459.779 137.083 459.309 136.656C458.84 136.229 458.141 136.016 457.213 136.016ZM465.047 131.84H462.615V130.432H466.551V142H465.047V131.84Z" fill="white"/>
<path d="M459.731 203.998C461.973 204.133 464.474 196.936 465.998 189.307C466.86 185.075 466.86 178.875 468.096 174.913C468.355 174.104 469.792 169.845 470.396 165.209C471.23 159.09 471.172 152.189 470.396 150.625C469.649 148.361 453.521 148.765 452.112 150.005C451.049 150.706 450.761 157.688 451.193 163.807C451.537 168.578 452.429 172.567 452.889 174.212C454.125 181.166 454.355 188.229 455.361 193.485C456.252 198.095 457.747 203.863 459.731 203.971V203.998Z" fill="white"/>
<rect x="495.5" y="0.5" width="39" height="99" rx="5.5" fill="#1C1C20" stroke="#2C2C30"/>
<path d="M514.81 84.984L507.002 85V83.8L510.73 80.584C511.199 80.1893 511.588 79.832 511.898 79.512C512.207 79.192 512.452 78.8987 512.634 78.632C512.815 78.3547 512.943 78.0827 513.018 77.816C513.092 77.5493 513.13 77.2613 513.13 76.952C513.13 76.2267 512.932 75.6613 512.538 75.256C512.154 74.84 511.61 74.632 510.906 74.632C510.191 74.632 509.615 74.8773 509.178 75.368C508.751 75.848 508.532 76.4987 508.522 77.32H506.954C506.975 76.4987 507.151 75.7787 507.482 75.16C507.812 74.5413 508.271 74.0667 508.858 73.736C509.455 73.3947 510.143 73.224 510.922 73.224C511.7 73.224 512.372 73.3733 512.938 73.672C513.503 73.9707 513.94 74.392 514.25 74.936C514.57 75.4693 514.73 76.1093 514.73 76.856C514.73 77.2613 514.676 77.6507 514.57 78.024C514.463 78.3867 514.292 78.7493 514.058 79.112C513.834 79.464 513.54 79.832 513.178 80.216C512.815 80.5893 512.378 81 511.866 81.448L508.842 84.072L508.314 83.528H514.81V84.984ZM524.075 84.984L516.267 85V83.8L519.995 80.584C520.465 80.1893 520.854 79.832 521.163 79.512C521.473 79.192 521.718 78.8987 521.899 78.632C522.081 78.3547 522.209 78.0827 522.283 77.816C522.358 77.5493 522.395 77.2613 522.395 76.952C522.395 76.2267 522.198 75.6613 521.803 75.256C521.419 74.84 520.875 74.632 520.171 74.632C519.457 74.632 518.881 74.8773 518.443 75.368C518.017 75.848 517.798 76.4987 517.787 77.32H516.219C516.241 76.4987 516.417 75.7787 516.747 75.16C517.078 74.5413 517.537 74.0667 518.123 73.736C518.721 73.3947 519.409 73.224 520.187 73.224C520.966 73.224 521.638 73.3733 522.203 73.672C522.769 73.9707 523.206 74.392 523.515 74.936C523.835 75.4693 523.995 76.1093 523.995 76.856C523.995 77.2613 523.942 77.6507 523.835 78.024C523.729 78.3867 523.558 78.7493 523.323 79.112C523.099 79.464 522.806 79.832 522.443 80.216C522.081 80.5893 521.643 81 521.131 81.448L518.107 84.072L517.579 83.528H524.075V84.984Z" fill="white"/>
<path d="M515.238 9.00424C517.84 8.82597 519.275 14.2632 521.443 27.0988C522.244 31.7635 523.378 36.458 524.178 40.5582C525.613 47.9862 526.78 62.1885 525.346 64.5951C524.545 66.5561 508.934 66.1996 507.533 65.1299C504.864 63.5255 506.365 46.976 506.966 41.2713C508.767 33.368 509.067 28.109 510.068 22.226C510.969 16.8779 512.937 9.18251 515.238 9.00424Z" fill="white"/>
<rect x="0.5" y="-0.5" width="39" height="99" rx="5.5" transform="matrix(1 0 0 -1 495 214)" fill="#1C1C20" stroke="#2C2C30"/>
<path d="M514.685 131.696L510.445 135.744L509.421 134.976L513.517 131.04L513.437 131.824H507.501V130.432H514.685V131.696ZM510.573 136.016H509.421V134.976C509.602 134.859 509.826 134.784 510.093 134.752C510.37 134.709 510.637 134.688 510.893 134.688C511.458 134.688 511.986 134.773 512.477 134.944C512.967 135.104 513.399 135.344 513.773 135.664C514.157 135.984 514.45 136.373 514.653 136.832C514.866 137.28 514.973 137.792 514.973 138.368C514.973 139.147 514.791 139.824 514.429 140.4C514.077 140.976 513.586 141.419 512.957 141.728C512.338 142.037 511.639 142.192 510.861 142.192C510.103 142.192 509.431 142.043 508.845 141.744C508.258 141.445 507.794 141.013 507.453 140.448C507.122 139.872 506.957 139.189 506.957 138.4H508.509C508.509 139.147 508.722 139.733 509.149 140.16C509.586 140.576 510.167 140.784 510.893 140.784C511.639 140.784 512.237 140.56 512.685 140.112C513.143 139.664 513.373 139.072 513.373 138.336C513.373 137.643 513.138 137.083 512.669 136.656C512.199 136.229 511.501 136.016 510.573 136.016ZM523.864 141.984L516.056 142V140.8L519.784 137.584C520.254 137.189 520.643 136.832 520.952 136.512C521.262 136.192 521.507 135.899 521.688 135.632C521.87 135.355 521.998 135.083 522.072 134.816C522.147 134.549 522.184 134.261 522.184 133.952C522.184 133.227 521.987 132.661 521.592 132.256C521.208 131.84 520.664 131.632 519.96 131.632C519.246 131.632 518.67 131.877 518.232 132.368C517.806 132.848 517.587 133.499 517.576 134.32H516.008C516.03 133.499 516.206 132.779 516.536 132.16C516.867 131.541 517.326 131.067 517.912 130.736C518.51 130.395 519.198 130.224 519.976 130.224C520.755 130.224 521.427 130.373 521.992 130.672C522.558 130.971 522.995 131.392 523.304 131.936C523.624 132.469 523.784 133.109 523.784 133.856C523.784 134.261 523.731 134.651 523.624 135.024C523.518 135.387 523.347 135.749 523.112 136.112C522.888 136.464 522.595 136.832 522.232 137.216C521.87 137.589 521.432 138 520.92 138.448L517.896 141.072L517.368 140.528H523.864V141.984Z" fill="white"/>
<path d="M515.238 205.996C517.84 206.174 519.275 200.737 521.443 187.901C522.244 183.236 523.378 178.542 524.178 174.442C525.613 167.014 526.78 152.812 525.346 150.405C524.545 148.444 508.934 148.8 507.533 149.87C504.864 151.475 506.365 168.024 506.966 173.729C508.767 181.632 509.067 186.891 510.068 192.774C510.969 198.122 512.937 205.817 515.238 205.996Z" fill="white"/>
<rect x="550.5" y="0.5" width="39" height="99" rx="5.5" fill="#E94346" fill-opacity="0.15" stroke="#E94346"/>
<path d="M569.864 84.984L562.056 85V83.8L565.784 80.584C566.254 80.1893 566.643 79.832 566.952 79.512C567.262 79.192 567.507 78.8987 567.688 78.632C567.87 78.3547 567.998 78.0827 568.072 77.816C568.147 77.5493 568.184 77.2613 568.184 76.952C568.184 76.2267 567.987 75.6613 567.592 75.256C567.208 74.84 566.664 74.632 565.96 74.632C565.246 74.632 564.67 74.8773 564.232 75.368C563.806 75.848 563.587 76.4987 563.576 77.32H562.008C562.03 76.4987 562.206 75.7787 562.536 75.16C562.867 74.5413 563.326 74.0667 563.912 73.736C564.51 73.3947 565.198 73.224 565.976 73.224C566.755 73.224 567.427 73.3733 567.992 73.672C568.558 73.9707 568.995 74.392 569.304 74.936C569.624 75.4693 569.784 76.1093 569.784 76.856C569.784 77.2613 569.731 77.6507 569.624 78.024C569.518 78.3867 569.347 78.7493 569.112 79.112C568.888 79.464 568.595 79.832 568.232 80.216C567.87 80.5893 567.432 81 566.92 81.448L563.896 84.072L563.368 83.528H569.864V84.984ZM578.794 74.696L574.554 78.744L573.53 77.976L577.626 74.04L577.546 74.824H571.61V73.432H578.794V74.696ZM574.682 79.016H573.53V77.976C573.711 77.8587 573.935 77.784 574.202 77.752C574.479 77.7093 574.746 77.688 575.002 77.688C575.567 77.688 576.095 77.7733 576.586 77.944C577.077 78.104 577.509 78.344 577.882 78.664C578.266 78.984 578.559 79.3733 578.762 79.832C578.975 80.28 579.082 80.792 579.082 81.368C579.082 82.1467 578.901 82.824 578.538 83.4C578.186 83.976 577.695 84.4187 577.066 84.728C576.447 85.0373 575.749 85.192 574.97 85.192C574.213 85.192 573.541 85.0427 572.954 84.744C572.367 84.4453 571.903 84.0133 571.562 83.448C571.231 82.872 571.066 82.1893 571.066 81.4H572.618C572.618 82.1467 572.831 82.7333 573.258 83.16C573.695 83.576 574.277 83.784 575.002 83.784C575.749 83.784 576.346 83.56 576.794 83.112C577.253 82.664 577.482 82.072 577.482 81.336C577.482 80.6427 577.247 80.0827 576.778 79.656C576.309 79.2293 575.61 79.016 574.682 79.016Z" fill="#E44343"/>
<path d="M568.169 9.01346C569.738 8.66619 571.75 15.0908 573.489 22.0073C575.74 31.0075 576.081 37.6636 576.354 40.6155C576.695 44.3198 580.378 55.7219 579.968 59.542C579.764 61.2783 571.341 66.1691 569.602 65.9955C567.862 65.8219 561.042 61.7124 560.531 60.2944C558.792 55.4904 561.861 44.8407 562.133 40.1814C562.44 35.4642 562.884 27.7663 563.293 23.4254C563.702 19.0844 566.567 9.38968 568.203 9.0424L568.169 9.01346Z" fill="#E44343"/>
<g opacity="0.6">
<rect x="0.5" y="-0.5" width="39" height="99" rx="5.5" transform="matrix(1 0 0 -1 550 214)" fill="#1C1C20" stroke="#2C2C30"/>
<path d="M569.505 131.696L565.265 135.744L564.241 134.976L568.337 131.04L568.257 131.824H562.321V130.432H569.505V131.696ZM565.393 136.016H564.241V134.976C564.422 134.859 564.646 134.784 564.913 134.752C565.19 134.709 565.457 134.688 565.713 134.688C566.278 134.688 566.806 134.773 567.297 134.944C567.788 135.104 568.22 135.344 568.593 135.664C568.977 135.984 569.27 136.373 569.473 136.832C569.686 137.28 569.793 137.792 569.793 138.368C569.793 139.147 569.612 139.824 569.249 140.4C568.897 140.976 568.406 141.419 567.777 141.728C567.158 142.037 566.46 142.192 565.681 142.192C564.924 142.192 564.252 142.043 563.665 141.744C563.078 141.445 562.614 141.013 562.273 140.448C561.942 139.872 561.777 139.189 561.777 138.4H563.329C563.329 139.147 563.542 139.733 563.969 140.16C564.406 140.576 564.988 140.784 565.713 140.784C566.46 140.784 567.057 140.56 567.505 140.112C567.964 139.664 568.193 139.072 568.193 138.336C568.193 137.643 567.958 137.083 567.489 136.656C567.02 136.229 566.321 136.016 565.393 136.016ZM578.817 131.696L574.577 135.744L573.553 134.976L577.649 131.04L577.569 131.824H571.633V130.432H578.817V131.696ZM574.705 136.016H573.553V134.976C573.735 134.859 573.959 134.784 574.225 134.752C574.503 134.709 574.769 134.688 575.025 134.688C575.591 134.688 576.119 134.773 576.609 134.944C577.1 135.104 577.532 135.344 577.905 135.664C578.289 135.984 578.583 136.373 578.785 136.832C578.999 137.28 579.105 137.792 579.105 138.368C579.105 139.147 578.924 139.824 578.561 140.4C578.209 140.976 577.719 141.419 577.089 141.728C576.471 142.037 575.772 142.192 574.993 142.192C574.236 142.192 573.564 142.043 572.977 141.744C572.391 141.445 571.927 141.013 571.585 140.448C571.255 139.872 571.089 139.189 571.089 138.4H572.641C572.641 139.147 572.855 139.733 573.281 140.16C573.719 140.576 574.3 140.784 575.025 140.784C575.772 140.784 576.369 140.56 576.817 140.112C577.276 139.664 577.505 139.072 577.505 138.336C577.505 137.643 577.271 137.083 576.801 136.656C576.332 136.229 575.633 136.016 574.705 136.016Z" fill="#E44343"/>
<path d="M575 169L565 179" stroke="#E44343" stroke-width="2" stroke-miterlimit="10" stroke-linecap="square"/>
<path d="M575 179L565 169" stroke="#E44343" stroke-width="2" stroke-miterlimit="10" stroke-linecap="square"/>
</g>
<rect x="605.5" y="0.5" width="39" height="99" rx="5.5" fill="#1C1C20" stroke="#2C2C30"/>
<path d="M624.013 84.984L616.205 85V83.8L619.933 80.584C620.402 80.1893 620.791 79.832 621.101 79.512C621.41 79.192 621.655 78.8987 621.837 78.632C622.018 78.3547 622.146 78.0827 622.221 77.816C622.295 77.5493 622.333 77.2613 622.333 76.952C622.333 76.2267 622.135 75.6613 621.741 75.256C621.357 74.84 620.813 74.632 620.109 74.632C619.394 74.632 618.818 74.8773 618.381 75.368C617.954 75.848 617.735 76.4987 617.725 77.32H616.157C616.178 76.4987 616.354 75.7787 616.685 75.16C617.015 74.5413 617.474 74.0667 618.061 73.736C618.658 73.3947 619.346 73.224 620.125 73.224C620.903 73.224 621.575 73.3733 622.141 73.672C622.706 73.9707 623.143 74.392 623.453 74.936C623.773 75.4693 623.933 76.1093 623.933 76.856C623.933 77.2613 623.879 77.6507 623.773 78.024C623.666 78.3867 623.495 78.7493 623.261 79.112C623.037 79.464 622.743 79.832 622.381 80.216C622.018 80.5893 621.581 81 621.069 81.448L618.045 84.072L617.517 83.528H624.013V84.984ZM632.391 73.432V85H630.887V73.432H632.391ZM624.903 81.272L630.359 73.432H632.039L626.535 81.368L624.903 81.272ZM633.767 82.664H624.903V81.272H633.767V82.664Z" fill="white"/>
<path d="M615.017 60.0789C614.833 58.4275 616.195 52.8179 617.504 48.7548C618.919 44.351 619.39 39.0297 620.018 31.5065C620.647 23.9833 621.878 13 624.418 13C625.832 13 626.932 18.0067 628.189 23.5115C629.446 28.9901 630.388 34.9667 631.017 39.8161C631.645 44.6656 631.803 46.3956 632.588 48.9121C634.081 53.6567 635.39 58.7945 634.893 59.8954C634.762 62.2546 631.41 63.5391 629.498 63.6177C628.503 63.6439 628.215 63.3818 627.272 63.0934C626.146 63.6177 625.02 63.9847 624.077 63.8274C623.266 63.6963 622.559 63.3818 621.93 63.041C620.935 63.3032 620.123 63.6177 619.285 63.5129C617.714 63.3032 615.357 62.307 615.069 60.1051L615.017 60.0789Z" fill="white"/>
<rect x="0.5" y="-0.5" width="39" height="99" rx="5.5" transform="matrix(1 0 0 -1 605 214)" fill="#1C1C20" stroke="#2C2C30"/>
<path d="M623.583 131.696L619.343 135.744L618.319 134.976L622.415 131.04L622.335 131.824H616.399V130.432H623.583V131.696ZM619.471 136.016H618.319V134.976C618.5 134.859 618.724 134.784 618.991 134.752C619.268 134.709 619.535 134.688 619.791 134.688C620.356 134.688 620.884 134.773 621.375 134.944C621.866 135.104 622.298 135.344 622.671 135.664C623.055 135.984 623.348 136.373 623.551 136.832C623.764 137.28 623.871 137.792 623.871 138.368C623.871 139.147 623.69 139.824 623.327 140.4C622.975 140.976 622.484 141.419 621.855 141.728C621.236 142.037 620.538 142.192 619.759 142.192C619.002 142.192 618.33 142.043 617.743 141.744C617.156 141.445 616.692 141.013 616.351 140.448C616.02 139.872 615.855 139.189 615.855 138.4H617.407C617.407 139.147 617.62 139.733 618.047 140.16C618.484 140.576 619.066 140.784 619.791 140.784C620.538 140.784 621.135 140.56 621.583 140.112C622.042 139.664 622.271 139.072 622.271 138.336C622.271 137.643 622.036 137.083 621.567 136.656C621.098 136.229 620.399 136.016 619.471 136.016ZM632.485 130.432V142H630.981V130.432H632.485ZM624.997 138.272L630.453 130.432H632.133L626.629 138.368L624.997 138.272ZM633.861 139.664H624.997V138.272H633.861V139.664Z" fill="white"/>
<path d="M615.017 154.921C614.833 156.573 616.195 162.182 617.504 166.245C618.919 170.649 619.39 175.97 620.018 183.493C620.647 191.017 621.878 202 624.418 202C625.832 202 626.932 196.993 628.189 191.489C629.446 186.01 630.388 180.033 631.017 175.184C631.645 170.334 631.803 168.604 632.588 166.088C634.081 161.343 635.39 156.206 634.893 155.105C634.762 152.745 631.41 151.461 629.498 151.382C628.503 151.356 628.215 151.618 627.272 151.907C626.146 151.382 625.02 151.015 624.077 151.173C623.266 151.304 622.559 151.618 621.93 151.959C620.935 151.697 620.123 151.382 619.285 151.487C617.714 151.697 615.357 152.693 615.069 154.895L615.017 154.921Z" fill="white"/>
<rect x="660.5" y="0.5" width="39" height="99" rx="5.5" fill="#1C1C20" stroke="#2C2C30"/>
<path d="M679.771 84.984L671.963 85V83.8L675.691 80.584C676.16 80.1893 676.549 79.832 676.859 79.512C677.168 79.192 677.413 78.8987 677.595 78.632C677.776 78.3547 677.904 78.0827 677.979 77.816C678.053 77.5493 678.091 77.2613 678.091 76.952C678.091 76.2267 677.893 75.6613 677.499 75.256C677.115 74.84 676.571 74.632 675.867 74.632C675.152 74.632 674.576 74.8773 674.139 75.368C673.712 75.848 673.493 76.4987 673.483 77.32H671.915C671.936 76.4987 672.112 75.7787 672.443 75.16C672.773 74.5413 673.232 74.0667 673.819 73.736C674.416 73.3947 675.104 73.224 675.883 73.224C676.661 73.224 677.333 73.3733 677.899 73.672C678.464 73.9707 678.901 74.392 679.211 74.936C679.531 75.4693 679.691 76.1093 679.691 76.856C679.691 77.2613 679.637 77.6507 679.531 78.024C679.424 78.3867 679.253 78.7493 679.019 79.112C678.795 79.464 678.501 79.832 678.139 80.216C677.776 80.5893 677.339 81 676.827 81.448L673.803 84.072L673.275 83.528H679.771V84.984ZM684.992 85.192C684.203 85.192 683.515 85.0373 682.928 84.728C682.352 84.408 681.899 83.9653 681.568 83.4C681.248 82.824 681.088 82.152 681.088 81.384H682.64C682.64 82.1307 682.854 82.7173 683.28 83.144C683.707 83.5707 684.288 83.784 685.024 83.784C685.547 83.784 686 83.6773 686.384 83.464C686.768 83.24 687.067 82.936 687.28 82.552C687.494 82.1573 687.6 81.6987 687.6 81.176C687.6 80.6747 687.499 80.232 687.296 79.848C687.094 79.4533 686.8 79.144 686.416 78.92C686.043 78.696 685.584 78.584 685.04 78.584C684.56 78.584 684.107 78.6907 683.68 78.904C683.254 79.1067 682.907 79.3733 682.64 79.704L681.312 79.368L682.72 73.432H688.512V74.872H683.296L684.016 74.232L682.944 78.536L682.416 78.648C682.715 78.1893 683.12 77.8427 683.632 77.608C684.144 77.3627 684.71 77.24 685.328 77.24C686.118 77.24 686.8 77.4107 687.376 77.752C687.952 78.0827 688.4 78.5413 688.72 79.128C689.04 79.7147 689.2 80.376 689.2 81.112C689.2 81.912 689.019 82.6213 688.656 83.24C688.304 83.848 687.814 84.328 687.184 84.68C686.566 85.0213 685.835 85.192 684.992 85.192Z" fill="white"/>
<path d="M680.727 12C682.22 12 683.271 16.4028 684.074 23.1039C684.765 29.0019 685.706 35.2046 686.37 40.3273C687.034 45.4501 686.785 47.2777 687.587 49.9359C689.081 54.9479 690.408 60.3752 689.883 61.5382C689.689 61.9259 683.714 64.8611 679.343 64.8611C674.973 64.8611 670.242 62.2028 670.242 62.2028C669.495 61.7044 670.574 54.671 672.123 49.7698C673.617 45.1178 674.419 39.4689 675.166 31.5218C676.052 22.1347 678.043 12 680.727 12Z" fill="white"/>
<rect x="0.5" y="-0.5" width="39" height="99" rx="5.5" transform="matrix(1 0 0 -1 660 214)" fill="#E94346" fill-opacity="0.15" stroke="#E94346"/>
<path d="M679.45 131.696L675.21 135.744L674.186 134.976L678.282 131.04L678.202 131.824H672.266V130.432H679.45V131.696ZM675.338 136.016H674.186V134.976C674.368 134.859 674.592 134.784 674.858 134.752C675.136 134.709 675.402 134.688 675.658 134.688C676.224 134.688 676.752 134.773 677.242 134.944C677.733 135.104 678.165 135.344 678.538 135.664C678.922 135.984 679.216 136.373 679.418 136.832C679.632 137.28 679.738 137.792 679.738 138.368C679.738 139.147 679.557 139.824 679.194 140.4C678.842 140.976 678.352 141.419 677.722 141.728C677.104 142.037 676.405 142.192 675.626 142.192C674.869 142.192 674.197 142.043 673.61 141.744C673.024 141.445 672.56 141.013 672.218 140.448C671.888 139.872 671.722 139.189 671.722 138.4H673.274C673.274 139.147 673.488 139.733 673.914 140.16C674.352 140.576 674.933 140.784 675.658 140.784C676.405 140.784 677.002 140.56 677.45 140.112C677.909 139.664 678.138 139.072 678.138 138.336C678.138 137.643 677.904 137.083 677.434 136.656C676.965 136.229 676.266 136.016 675.338 136.016ZM684.977 142.192C684.187 142.192 683.499 142.037 682.913 141.728C682.337 141.408 681.883 140.965 681.553 140.4C681.233 139.824 681.073 139.152 681.073 138.384H682.625C682.625 139.131 682.838 139.717 683.265 140.144C683.691 140.571 684.273 140.784 685.009 140.784C685.531 140.784 685.985 140.677 686.369 140.464C686.753 140.24 687.051 139.936 687.265 139.552C687.478 139.157 687.585 138.699 687.585 138.176C687.585 137.675 687.483 137.232 687.281 136.848C687.078 136.453 686.785 136.144 686.401 135.92C686.027 135.696 685.569 135.584 685.025 135.584C684.545 135.584 684.091 135.691 683.665 135.904C683.238 136.107 682.891 136.373 682.625 136.704L681.297 136.368L682.705 130.432H688.497V131.872H683.281L684.001 131.232L682.929 135.536L682.401 135.648C682.699 135.189 683.105 134.843 683.617 134.608C684.129 134.363 684.694 134.24 685.313 134.24C686.102 134.24 686.785 134.411 687.361 134.752C687.937 135.083 688.385 135.541 688.705 136.128C689.025 136.715 689.185 137.376 689.185 138.112C689.185 138.912 689.003 139.621 688.641 140.24C688.289 140.848 687.798 141.328 687.169 141.68C686.55 142.021 685.819 142.192 684.977 142.192Z" fill="white"/>
<path d="M680.727 203C682.22 203 683.271 198.597 684.074 191.896C684.765 185.998 685.706 179.795 686.37 174.673C687.034 169.55 686.785 167.722 687.587 165.064C689.081 160.052 690.408 154.625 689.883 153.462C689.689 153.074 683.714 150.139 679.343 150.139C674.973 150.139 670.242 152.797 670.242 152.797C669.495 153.296 670.574 160.329 672.123 165.23C673.617 169.882 674.419 175.531 675.166 183.478C676.052 192.865 678.043 203 680.727 203Z" fill="#E44343"/>
<rect x="715.5" y="0.5" width="39" height="99" rx="5.5" fill="#6C5AE6" fill-opacity="0.2" stroke="#6C5AE6"/>
<path d="M734.552 84.984L726.744 85V83.8L730.472 80.584C730.941 80.1893 731.33 79.832 731.64 79.512C731.949 79.192 732.194 78.8987 732.376 78.632C732.557 78.3547 732.685 78.0827 732.76 77.816C732.834 77.5493 732.872 77.2613 732.872 76.952C732.872 76.2267 732.674 75.6613 732.28 75.256C731.896 74.84 731.352 74.632 730.648 74.632C729.933 74.632 729.357 74.8773 728.92 75.368C728.493 75.848 728.274 76.4987 728.264 77.32H726.696C726.717 76.4987 726.893 75.7787 727.224 75.16C727.554 74.5413 728.013 74.0667 728.6 73.736C729.197 73.3947 729.885 73.224 730.664 73.224C731.442 73.224 732.114 73.3733 732.68 73.672C733.245 73.9707 733.682 74.392 733.992 74.936C734.312 75.4693 734.472 76.1093 734.472 76.856C734.472 77.2613 734.418 77.6507 734.312 78.024C734.205 78.3867 734.034 78.7493 733.8 79.112C733.576 79.464 733.282 79.832 732.92 80.216C732.557 80.5893 732.12 81 731.608 81.448L728.584 84.072L728.056 83.528H734.552V84.984ZM737.467 77.096L740.171 73.432H741.995L738.683 77.832L738.331 77.72C738.64 77.4853 738.96 77.3147 739.291 77.208C739.632 77.0907 739.974 77.032 740.315 77.032C741.115 77.032 741.814 77.208 742.411 77.56C743.019 77.9013 743.488 78.376 743.819 78.984C744.16 79.592 744.331 80.28 744.331 81.048C744.331 81.8587 744.144 82.5787 743.771 83.208C743.408 83.8267 742.907 84.312 742.267 84.664C741.638 85.016 740.923 85.192 740.123 85.192C739.323 85.192 738.598 85.0107 737.947 84.648C737.307 84.2853 736.8 83.7893 736.427 83.16C736.054 82.5307 735.867 81.8267 735.867 81.048C735.867 80.5893 735.915 80.1627 736.011 79.768C736.118 79.3733 736.288 78.9627 736.523 78.536C736.758 78.1093 737.072 77.6293 737.467 77.096ZM737.467 81.064C737.467 81.5973 737.579 82.072 737.803 82.488C738.027 82.8933 738.336 83.2133 738.731 83.448C739.136 83.672 739.6 83.784 740.123 83.784C740.635 83.784 741.088 83.672 741.483 83.448C741.878 83.2133 742.187 82.8933 742.411 82.488C742.635 82.072 742.747 81.5973 742.747 81.064C742.747 80.5307 742.635 80.0613 742.411 79.656C742.187 79.2507 741.878 78.936 741.483 78.712C741.088 78.4773 740.635 78.36 740.123 78.36C739.6 78.36 739.136 78.4773 738.731 78.712C738.336 78.936 738.027 79.2507 737.803 79.656C737.579 80.0613 737.467 80.5307 737.467 81.064Z" fill="#6C5AE6"/>
<path d="M725.176 53.4431C725.533 49.5326 728.012 45.761 728.428 43.8752C728.845 41.9894 728.151 37.2253 728.032 33.5331C727.913 29.8409 729.598 24.66 730.312 24.66C731.026 24.66 730.848 26.9229 731.442 30.496C731.978 33.6324 733.723 39.1706 734.774 40.4808C735.131 38.595 735.785 34.8631 735.785 32.759C735.785 29.8409 734.893 26.3473 735.369 26.1686C735.547 26.1091 735.904 26.5656 736.321 27.3001C736.321 27.3001 736.321 27.3199 736.341 27.3398C736.341 27.3398 736.341 27.3795 736.38 27.3993C736.38 27.3993 736.38 27.4192 736.4 27.439C736.4 27.439 736.42 27.4787 736.44 27.4986C736.44 27.4986 736.44 27.5383 736.46 27.5383C736.46 27.5383 736.46 27.578 736.479 27.578C736.479 27.578 736.479 27.6177 736.499 27.6177C736.499 27.6177 736.499 27.6574 736.519 27.6574C736.519 27.6574 736.519 27.6971 736.539 27.6971C736.539 27.6971 736.539 27.7368 736.559 27.7368C736.559 27.7368 736.559 27.7765 736.579 27.7765C736.598 27.7765 736.579 27.8162 736.598 27.8361C736.598 27.8361 736.598 27.8758 736.618 27.8758C736.618 27.8758 736.618 27.9155 736.638 27.9155C736.638 27.9155 736.638 27.9552 736.678 27.975C736.678 27.975 736.678 28.0147 736.698 28.0147C736.698 28.0147 736.698 28.0544 736.717 28.0743C736.717 28.0743 736.717 28.114 736.737 28.114C736.757 28.114 736.737 28.1537 736.757 28.1735C736.757 28.1735 736.757 28.2132 736.777 28.2132C737.074 28.7492 737.431 29.6226 737.788 30.6747C738.125 27.9155 738.383 24.3821 739.018 24.0248C739.553 23.7469 740.961 25.8312 741.635 29.0668C742.31 32.2825 741.913 41.1954 742.111 42.7437C742.31 44.292 744.412 49.1951 744.907 52.6491C745.403 56.103 743.837 60.9465 741.913 61.2642C740.009 61.5818 735.885 60.3312 735.885 60.3312C735.885 60.3312 731.462 61.2046 728.746 61.0458C726.029 60.887 724.7 57.2941 725.057 53.3835L725.176 53.4431Z" fill="#6C5AE6"/>
<rect x="0.5" y="-0.5" width="39" height="99" rx="5.5" transform="matrix(1 0 0 -1 715 214)" fill="#E94346" fill-opacity="0.15" stroke="#E94346"/>
<path d="M734.271 131.696L730.031 135.744L729.007 134.976L733.103 131.04L733.023 131.824H727.087V130.432H734.271V131.696ZM730.159 136.016H729.007V134.976C729.188 134.859 729.412 134.784 729.679 134.752C729.956 134.709 730.223 134.688 730.479 134.688C731.044 134.688 731.572 134.773 732.063 134.944C732.553 135.104 732.985 135.344 733.359 135.664C733.743 135.984 734.036 136.373 734.239 136.832C734.452 137.28 734.559 137.792 734.559 138.368C734.559 139.147 734.377 139.824 734.015 140.4C733.663 140.976 733.172 141.419 732.543 141.728C731.924 142.037 731.225 142.192 730.447 142.192C729.689 142.192 729.017 142.043 728.431 141.744C727.844 141.445 727.38 141.013 727.039 140.448C726.708 139.872 726.543 139.189 726.543 138.4H728.095C728.095 139.147 728.308 139.733 728.735 140.16C729.172 140.576 729.753 140.784 730.479 140.784C731.225 140.784 731.823 140.56 732.271 140.112C732.729 139.664 732.959 139.072 732.959 138.336C732.959 137.643 732.724 137.083 732.255 136.656C731.785 136.229 731.087 136.016 730.159 136.016ZM737.412 134.096L740.116 130.432H741.94L738.628 134.832L738.276 134.72C738.586 134.485 738.906 134.315 739.236 134.208C739.578 134.091 739.919 134.032 740.26 134.032C741.06 134.032 741.759 134.208 742.356 134.56C742.964 134.901 743.434 135.376 743.764 135.984C744.106 136.592 744.276 137.28 744.276 138.048C744.276 138.859 744.09 139.579 743.716 140.208C743.354 140.827 742.852 141.312 742.212 141.664C741.583 142.016 740.868 142.192 740.068 142.192C739.268 142.192 738.543 142.011 737.892 141.648C737.252 141.285 736.746 140.789 736.372 140.16C735.999 139.531 735.812 138.827 735.812 138.048C735.812 137.589 735.86 137.163 735.956 136.768C736.063 136.373 736.234 135.963 736.468 135.536C736.703 135.109 737.018 134.629 737.412 134.096ZM737.412 138.064C737.412 138.597 737.524 139.072 737.748 139.488C737.972 139.893 738.282 140.213 738.676 140.448C739.082 140.672 739.546 140.784 740.068 140.784C740.58 140.784 741.034 140.672 741.428 140.448C741.823 140.213 742.132 139.893 742.356 139.488C742.58 139.072 742.692 138.597 742.692 138.064C742.692 137.531 742.58 137.061 742.356 136.656C742.132 136.251 741.823 135.936 741.428 135.712C741.034 135.477 740.58 135.36 740.068 135.36C739.546 135.36 739.082 135.477 738.676 135.712C738.282 135.936 737.972 136.251 737.748 136.656C737.524 137.061 737.412 137.531 737.412 138.064Z" fill="white"/>
<path d="M725.176 161.557C725.533 165.467 728.012 169.239 728.428 171.125C728.845 173.011 728.151 177.775 728.032 181.467C727.913 185.159 729.598 190.34 730.312 190.34C731.026 190.34 730.848 188.077 731.442 184.504C731.978 181.368 733.723 175.829 734.774 174.519C735.131 176.405 735.785 180.137 735.785 182.241C735.785 185.159 734.893 188.653 735.369 188.831C735.547 188.891 735.904 188.434 736.321 187.7C736.321 187.7 736.321 187.68 736.341 187.66C736.341 187.66 736.341 187.621 736.38 187.601C736.38 187.601 736.38 187.581 736.4 187.561C736.4 187.561 736.42 187.521 736.44 187.501C736.44 187.501 736.44 187.462 736.46 187.462C736.46 187.462 736.46 187.422 736.479 187.422C736.479 187.422 736.479 187.382 736.499 187.382C736.499 187.382 736.499 187.343 736.519 187.343C736.519 187.343 736.519 187.303 736.539 187.303C736.539 187.303 736.539 187.263 736.559 187.263C736.559 187.263 736.559 187.223 736.579 187.223C736.598 187.223 736.579 187.184 736.598 187.164C736.598 187.164 736.598 187.124 736.618 187.124C736.618 187.124 736.618 187.085 736.638 187.085C736.638 187.085 736.638 187.045 736.678 187.025C736.678 187.025 736.678 186.985 736.698 186.985C736.698 186.985 736.698 186.946 736.717 186.926C736.717 186.926 736.717 186.886 736.737 186.886C736.757 186.886 736.737 186.846 736.757 186.826C736.757 186.826 736.757 186.787 736.777 186.787C737.074 186.251 737.431 185.377 737.788 184.325C738.125 187.085 738.383 190.618 739.018 190.975C739.553 191.253 740.961 189.169 741.635 185.933C742.31 182.717 741.913 173.805 742.111 172.256C742.31 170.708 744.412 165.805 744.907 162.351C745.403 158.897 743.837 154.053 741.913 153.736C740.009 153.418 735.885 154.669 735.885 154.669C735.885 154.669 731.462 153.795 728.746 153.954C726.029 154.113 724.7 157.706 725.057 161.616L725.176 161.557Z" fill="#E44343"/>
<rect x="770.5" y="0.5" width="39" height="99" rx="5.5" fill="#E94346" fill-opacity="0.15" stroke="#E94346"/>
<path d="M789.833 84.984L782.025 85V83.8L785.753 80.584C786.222 80.1893 786.612 79.832 786.921 79.512C787.23 79.192 787.476 78.8987 787.657 78.632C787.838 78.3547 787.966 78.0827 788.041 77.816C788.116 77.5493 788.153 77.2613 788.153 76.952C788.153 76.2267 787.956 75.6613 787.561 75.256C787.177 74.84 786.633 74.632 785.929 74.632C785.214 74.632 784.638 74.8773 784.201 75.368C783.774 75.848 783.556 76.4987 783.545 77.32H781.977C781.998 76.4987 782.174 75.7787 782.505 75.16C782.836 74.5413 783.294 74.0667 783.881 73.736C784.478 73.3947 785.166 73.224 785.945 73.224C786.724 73.224 787.396 73.3733 787.961 73.672C788.526 73.9707 788.964 74.392 789.273 74.936C789.593 75.4693 789.753 76.1093 789.753 76.856C789.753 77.2613 789.7 77.6507 789.593 78.024C789.486 78.3867 789.316 78.7493 789.081 79.112C788.857 79.464 788.564 79.832 788.201 80.216C787.838 80.5893 787.401 81 786.889 81.448L783.865 84.072L783.337 83.528H789.833V84.984ZM790.526 73.432H798.606V74.872H790.526V73.432ZM797.39 74.04L798.606 74.872L794.222 85H792.59L797.39 74.04Z" fill="#E44343"/>
<path d="M794.018 22.8938C794.554 22.6159 795.962 24.7003 796.636 27.936C797.31 31.1519 797.35 39.8666 797.548 41.415C797.747 42.9634 799.412 48.0652 799.908 51.5193C800.404 54.9734 798.818 59.7774 796.914 60.1348C794.177 60.6509 789.398 59.2017 789.398 59.2017C789.398 59.2017 786.482 60.0752 783.746 59.9164C781.029 59.7576 779.7 56.1645 780.057 52.2538C780.414 48.3431 782.893 44.5714 783.309 42.6855C783.726 40.7996 783.468 34.3877 783.547 30.7152C783.627 27.0229 785.63 21.941 786.344 22.0005C787.058 22.0601 786.74 24.2834 787.137 27.8963C787.533 31.4894 789.1 39.5887 790.052 39.6086C791.004 39.6086 791.837 34.2884 792.412 31.9261C792.987 29.5638 793.166 23.3901 794.018 22.9335V22.8938Z" fill="#E44343"/>
<rect x="0.5" y="-0.5" width="39" height="99" rx="5.5" transform="matrix(1 0 0 -1 770 214)" fill="#E94346" fill-opacity="0.15" stroke="#E94346"/>
<path d="M789.38 131.696L785.14 135.744L784.116 134.976L788.212 131.04L788.132 131.824H782.196V130.432H789.38V131.696ZM785.268 136.016H784.116V134.976C784.297 134.859 784.521 134.784 784.788 134.752C785.065 134.709 785.332 134.688 785.588 134.688C786.153 134.688 786.681 134.773 787.172 134.944C787.663 135.104 788.095 135.344 788.468 135.664C788.852 135.984 789.145 136.373 789.348 136.832C789.561 137.28 789.668 137.792 789.668 138.368C789.668 139.147 789.487 139.824 789.124 140.4C788.772 140.976 788.281 141.419 787.652 141.728C787.033 142.037 786.335 142.192 785.556 142.192C784.799 142.192 784.127 142.043 783.54 141.744C782.953 141.445 782.489 141.013 782.148 140.448C781.817 139.872 781.652 139.189 781.652 138.4H783.204C783.204 139.147 783.417 139.733 783.844 140.16C784.281 140.576 784.863 140.784 785.588 140.784C786.335 140.784 786.932 140.56 787.38 140.112C787.839 139.664 788.068 139.072 788.068 138.336C788.068 137.643 787.833 137.083 787.364 136.656C786.895 136.229 786.196 136.016 785.268 136.016ZM790.644 130.432H798.724V131.872H790.644V130.432ZM797.508 131.04L798.724 131.872L794.34 142H792.708L797.508 131.04Z" fill="white"/>
<path d="M794.018 192.106C794.554 192.384 795.962 190.3 796.636 187.064C797.31 183.848 797.35 175.133 797.548 173.585C797.747 172.037 799.412 166.935 799.908 163.481C800.404 160.027 798.818 155.223 796.914 154.865C794.177 154.349 789.398 155.798 789.398 155.798C789.398 155.798 786.482 154.925 783.746 155.084C781.029 155.242 779.7 158.835 780.057 162.746C780.414 166.657 782.893 170.429 783.309 172.314C783.726 174.2 783.468 180.612 783.547 184.285C783.627 187.977 785.63 193.059 786.344 192.999C787.058 192.94 786.74 190.717 787.137 187.104C787.533 183.511 789.1 175.411 790.052 175.391C791.004 175.391 791.837 180.712 792.412 183.074C792.987 185.436 793.166 191.61 794.018 192.066V192.106Z" fill="#E44343"/>
<g opacity="0.6">
<rect x="825.5" y="0.5" width="39" height="99" rx="5.5" fill="#1C1C20" stroke="#2C2C30"/>
<path d="M843.942 84.984L836.134 85V83.8L839.862 80.584C840.332 80.1893 840.721 79.832 841.03 79.512C841.34 79.192 841.585 78.8987 841.766 78.632C841.948 78.3547 842.076 78.0827 842.15 77.816C842.225 77.5493 842.262 77.2613 842.262 76.952C842.262 76.2267 842.065 75.6613 841.67 75.256C841.286 74.84 840.742 74.632 840.038 74.632C839.324 74.632 838.748 74.8773 838.31 75.368C837.884 75.848 837.665 76.4987 837.654 77.32H836.086C836.108 76.4987 836.284 75.7787 836.614 75.16C836.945 74.5413 837.404 74.0667 837.99 73.736C838.588 73.3947 839.276 73.224 840.054 73.224C840.833 73.224 841.505 73.3733 842.07 73.672C842.636 73.9707 843.073 74.392 843.382 74.936C843.702 75.4693 843.862 76.1093 843.862 76.856C843.862 77.2613 843.809 77.6507 843.702 78.024C843.596 78.3867 843.425 78.7493 843.19 79.112C842.966 79.464 842.673 79.832 842.31 80.216C841.948 80.5893 841.51 81 840.998 81.448L837.974 84.072L837.446 83.528H843.942V84.984ZM845.354 81.784C845.354 80.9947 845.594 80.3173 846.074 79.752C846.554 79.176 847.194 78.8133 847.994 78.664L848.01 79C847.295 78.808 846.74 78.4773 846.346 78.008C845.962 77.528 845.77 76.9467 845.77 76.264C845.77 75.656 845.93 75.128 846.25 74.68C846.57 74.2213 847.018 73.864 847.594 73.608C848.18 73.352 848.858 73.224 849.626 73.224C850.383 73.224 851.044 73.352 851.61 73.608C852.186 73.864 852.634 74.2213 852.954 74.68C853.274 75.1387 853.434 75.672 853.434 76.28C853.434 76.9627 853.236 77.544 852.842 78.024C852.458 78.4933 851.908 78.8133 851.194 78.984L851.178 78.68C851.711 78.7547 852.18 78.9413 852.586 79.24C852.991 79.528 853.306 79.8907 853.53 80.328C853.754 80.7653 853.866 81.256 853.866 81.8C853.866 82.472 853.684 83.064 853.322 83.576C852.97 84.088 852.474 84.488 851.834 84.776C851.204 85.0533 850.463 85.192 849.61 85.192C848.756 85.192 848.01 85.0533 847.37 84.776C846.73 84.488 846.234 84.088 845.882 83.576C845.53 83.064 845.354 82.4667 845.354 81.784ZM846.89 81.672C846.89 82.0987 847.002 82.472 847.226 82.792C847.45 83.112 847.764 83.3627 848.17 83.544C848.586 83.7147 849.066 83.8 849.61 83.8C850.154 83.8 850.628 83.7147 851.034 83.544C851.439 83.3627 851.754 83.112 851.978 82.792C852.202 82.472 852.314 82.0987 852.314 81.672C852.314 81.032 852.068 80.5253 851.578 80.152C851.087 79.768 850.426 79.576 849.594 79.576C848.772 79.576 848.116 79.768 847.626 80.152C847.135 80.5253 846.89 81.032 846.89 81.672ZM847.21 76.36C847.21 76.9253 847.423 77.3787 847.85 77.72C848.287 78.0613 848.868 78.232 849.594 78.232C850.319 78.232 850.895 78.0667 851.322 77.736C851.748 77.3947 851.962 76.9467 851.962 76.392C851.962 75.8373 851.748 75.4 851.322 75.08C850.895 74.7493 850.319 74.584 849.594 74.584C848.868 74.584 848.287 74.7493 847.85 75.08C847.423 75.4 847.21 75.8267 847.21 76.36Z" fill="#E44343"/>
<path d="M850 40L840 50" stroke="#E44343" stroke-width="2" stroke-miterlimit="10" stroke-linecap="square"/>
<path d="M850 50L840 40" stroke="#E44343" stroke-width="2" stroke-miterlimit="10" stroke-linecap="square"/>
</g>
<rect x="0.5" y="-0.5" width="39" height="99" rx="5.5" transform="matrix(1 0 0 -1 825 214)" fill="#1C1C20" stroke="#2C2C30"/>
<path d="M843.661 131.696L839.421 135.744L838.397 134.976L842.493 131.04L842.413 131.824H836.477V130.432H843.661V131.696ZM839.549 136.016H838.397V134.976C838.578 134.859 838.802 134.784 839.069 134.752C839.346 134.709 839.613 134.688 839.869 134.688C840.434 134.688 840.962 134.773 841.453 134.944C841.944 135.104 842.376 135.344 842.749 135.664C843.133 135.984 843.426 136.373 843.629 136.832C843.842 137.28 843.949 137.792 843.949 138.368C843.949 139.147 843.768 139.824 843.405 140.4C843.053 140.976 842.562 141.419 841.933 141.728C841.314 142.037 840.616 142.192 839.837 142.192C839.08 142.192 838.408 142.043 837.821 141.744C837.234 141.445 836.77 141.013 836.429 140.448C836.098 139.872 835.933 139.189 835.933 138.4H837.485C837.485 139.147 837.698 139.733 838.125 140.16C838.562 140.576 839.144 140.784 839.869 140.784C840.616 140.784 841.213 140.56 841.661 140.112C842.12 139.664 842.349 139.072 842.349 138.336C842.349 137.643 842.114 137.083 841.645 136.656C841.176 136.229 840.477 136.016 839.549 136.016ZM845.299 138.784C845.299 137.995 845.539 137.317 846.019 136.752C846.499 136.176 847.139 135.813 847.939 135.664L847.955 136C847.24 135.808 846.686 135.477 846.291 135.008C845.907 134.528 845.715 133.947 845.715 133.264C845.715 132.656 845.875 132.128 846.195 131.68C846.515 131.221 846.963 130.864 847.539 130.608C848.126 130.352 848.803 130.224 849.571 130.224C850.328 130.224 850.99 130.352 851.555 130.608C852.131 130.864 852.579 131.221 852.899 131.68C853.219 132.139 853.379 132.672 853.379 133.28C853.379 133.963 853.182 134.544 852.787 135.024C852.403 135.493 851.854 135.813 851.139 135.984L851.123 135.68C851.656 135.755 852.126 135.941 852.531 136.24C852.936 136.528 853.251 136.891 853.475 137.328C853.699 137.765 853.811 138.256 853.811 138.8C853.811 139.472 853.63 140.064 853.267 140.576C852.915 141.088 852.419 141.488 851.779 141.776C851.15 142.053 850.408 142.192 849.555 142.192C848.702 142.192 847.955 142.053 847.315 141.776C846.675 141.488 846.179 141.088 845.827 140.576C845.475 140.064 845.299 139.467 845.299 138.784ZM846.835 138.672C846.835 139.099 846.947 139.472 847.171 139.792C847.395 140.112 847.71 140.363 848.115 140.544C848.531 140.715 849.011 140.8 849.555 140.8C850.099 140.8 850.574 140.715 850.979 140.544C851.384 140.363 851.699 140.112 851.923 139.792C852.147 139.472 852.259 139.099 852.259 138.672C852.259 138.032 852.014 137.525 851.523 137.152C851.032 136.768 850.371 136.576 849.539 136.576C848.718 136.576 848.062 136.768 847.571 137.152C847.08 137.525 846.835 138.032 846.835 138.672ZM847.155 133.36C847.155 133.925 847.368 134.379 847.795 134.72C848.232 135.061 848.814 135.232 849.539 135.232C850.264 135.232 850.84 135.067 851.267 134.736C851.694 134.395 851.907 133.947 851.907 133.392C851.907 132.837 851.694 132.4 851.267 132.08C850.84 131.749 850.264 131.584 849.539 131.584C848.814 131.584 848.232 131.749 847.795 132.08C847.368 132.4 847.155 132.827 847.155 133.36Z" fill="white"/>
<path d="M836.114 163.202C836.486 167.281 838.741 171.589 839.155 173.556C839.59 175.523 838.472 180.493 838.328 184.345C838.204 188.196 839.631 192.897 840.376 192.876C841.12 192.876 841.265 191.82 841.886 188.093C842.113 186.768 842.548 185.049 843.044 183.351C843.127 183.827 843.189 184.283 843.231 184.676C843.52 187.409 844.41 192.628 845.196 192.586C845.961 192.524 846.499 187.886 847.037 184.635C847.202 183.661 847.347 182.647 847.471 181.735C847.761 183.102 848.03 184.469 848.258 185.401C848.878 187.865 848.754 195.506 849.644 195.983C850.202 196.272 851.94 192.897 852.664 189.542C853.367 186.188 852.954 176.931 853.16 175.316C853.367 173.701 855.312 167.965 855.829 164.361C856.346 160.758 855.705 156.472 853.698 155.85C850.492 154.856 845.361 156.327 845.361 156.327C845.361 156.327 842.941 154.774 839.197 155.581C836.404 156.182 835.721 159.102 836.093 163.202H836.114Z" fill="white"/>
</svg>
